<?xml version="1.0" encoding="utf-8"?><!-- Uploaded to: SVG Repo, www.svgrepo.com, Generator: SVG Repo Mixer Tools -->
<svg fill="#000000" width="800px" height="800px" viewBox="0 0 24 24" id="boat-left-2" data-name="Line Color" xmlns="http://www.w3.org/2000/svg" class="icon line-color"><path id="primary" d="M16.25,8a5.73,5.73,0,0,0,3.2-1h0A1,1,0,0,1,21,7.86v1.2A4,4,0,0,1,17.06,13H6.94A4,4,0,0,1,3,9.06V7.86A1,1,0,0,1,4.55,7h0a5.73,5.73,0,0,0,3.2,1Z" style="fill: none; stroke: rgb(0, 0, 0); stroke-linecap: round; stroke-linejoin: round; stroke-width: 2;"></path><path id="secondary" d="M16,16.79,7.78,5M18,17.85,17.43,17a1,1,0,0,0-1.4-.24h0a1,1,0,0,0-.24,1.39l.57.82Z" style="fill: none; stroke: rgb(44, 169, 188); stroke-linecap: round; stroke-linejoin: round; stroke-width: 2;"></path></svg>