<?xml version="1.0" standalone="no"?>
<!DOCTYPE svg PUBLIC "-//W3C//DTD SVG 20010904//EN"
 "http://www.w3.org/TR/2001/REC-SVG-20010904/DTD/svg10.dtd">
<svg version="1.0" xmlns="http://www.w3.org/2000/svg"
 width="637.000000pt" height="827.000000pt" viewBox="0 0 637.000000 827.000000"
 preserveAspectRatio="xMidYMid meet">

<g transform="translate(0.000000,827.000000) scale(0.100000,-0.100000)"
fill="#E25405" stroke="none">
<path d="M3100 8263 c-522 -14 -1047 -152 -1466 -384 -657 -365 -1187 -951
-1447 -1599 -102 -255 -159 -492 -177 -743 -7 -96 -10 -1019 -8 -2837 l3
-2695 763 -3 762 -2 0 117 c1 216 47 2263 51 2267 2 3 572 -533 1267 -1190
l1263 -1194 1120 0 c690 0 1119 4 1117 9 -1 5 -443 534 -982 1175 -538 642
-986 1176 -996 1189 l-18 23 491 404 c520 429 684 579 841 775 497 620 719
1387 620 2145 -66 509 -286 1020 -615 1430 -325 406 -810 744 -1334 930 -352
124 -831 194 -1255 183z m407 -1514 c230 -38 499 -149 693 -286 138 -98 339
-302 429 -437 119 -178 192 -339 237 -520 35 -137 43 -359 20 -496 -46 -266
-174 -529 -357 -734 -91 -102 -1240 -1201 -1255 -1201 -17 0 -1184 1127 -1249
1205 -172 209 -289 448 -340 695 -23 109 -31 330 -16 449 65 512 393 959 876
1191 307 148 618 191 962 134z"/>
<path d="M3135 5935 c-210 -39 -398 -163 -511 -336 -110 -168 -145 -380 -95
-572 95 -364 470 -609 851 -557 179 24 323 93 448 214 362 350 279 928 -168
1169 -160 86 -347 115 -525 82z"/>
</g>
</svg>
